<?xml version="1.0" encoding="UTF-8"?>
<svg xmlns="http://www.w3.org/2000/svg" viewBox="0 0 801 60" width="801" height="60">
  <g fill="#A6442E" transform="translate(0,45) scale(0.2,0.2)">
<g transform="translate(-59,0)"><path d="M379 926Q497 926 588.5 892.0Q680 858 742.5 797.0Q805 736 837.5 651.0Q870 566 870 464Q870 355 838.0 266.0Q806 177 745.5 114.0Q685 51 597.5 16.0Q510 -19 398 -19Q342 -19 298.5 -17.0Q255 -15 216.0 -9.5Q177 -4 139.5 4.5Q102 13 59 26V886Q97 897 134.0 904.5Q171 912 209.5 917.0Q248 922 289.5 924.0Q331 926 379 926ZM396 114Q471 114 527.5 139.0Q584 164 622.0 209.5Q660 255 680.0 319.0Q700 383 700 460Q700 533 678.5 594.5Q657 656 615.5 700.0Q574 744 513.5 769.0Q453 794 374 794Q332 794 294.5 791.0Q257 788 223 783V130Q259 122 301.0 118.0Q343 114 396 114Z"/></g>
<g transform="translate(873,0)"><path d="M390 710Q462 710 521.5 687.0Q581 664 623.0 619.5Q665 575 685.5 511.0Q706 447 699 366L677 337L192 249Q214 184 265.5 150.0Q317 116 383 117Q434 118 487.5 139.0Q541 160 594 203Q614 195 627.5 178.5Q641 162 649.5 146.0Q658 130 662.0 117.5Q666 105 666 105Q595 42 518.0 12.0Q441 -18 366 -18Q298 -18 237.0 4.5Q176 27 130.0 70.5Q84 114 56.5 177.0Q29 240 28 321Q27 402 53.5 472.5Q80 543 128.0 596.0Q176 649 243.0 679.5Q310 710 390 710ZM541 419Q543 493 502.0 538.5Q461 584 390 584Q349 584 313.0 566.5Q277 549 249.0 519.0Q221 489 203.0 448.0Q185 407 181 359Z"/></g>
<g transform="translate(1599,0)"><path d="M719 182Q719 153 720.0 130.5Q721 108 722.5 89.0Q724 70 726.5 53.5Q729 37 733 20V0H596Q588 14 579.0 40.0Q570 66 565 95Q524 44 466.0 13.0Q408 -18 335 -18Q267 -18 210.5 8.5Q154 35 113.5 81.0Q73 127 50.5 188.5Q28 250 28 321Q28 403 52.0 474.5Q76 546 120.5 598.0Q165 650 228.5 680.0Q292 710 371 710Q430 710 478.5 683.5Q527 657 558 613V934Q570 938 591.5 940.5Q613 943 637.0 943.0Q661 943 683.0 940.5Q705 938 719 934ZM365 118Q405 118 439.5 140.5Q474 163 499.0 203.5Q524 244 538.0 298.5Q552 353 552 418Q552 452 539.0 480.5Q526 509 505.0 530.0Q484 551 456.0 563.0Q428 575 398 575Q354 575 317.0 557.0Q280 539 252.5 507.5Q225 476 209.0 431.5Q193 387 193 335Q193 287 205.5 247.5Q218 208 240.5 179.0Q263 150 295.0 134.0Q327 118 365 118Z"/></g>
<g transform="translate(2384,0)"><path d="M369 -18Q300 -18 238.0 5.0Q176 28 129.5 73.0Q83 118 55.5 183.5Q28 249 28 333Q28 412 56.5 481.0Q85 550 135.0 601.0Q185 652 251.5 681.0Q318 710 395 710Q466 710 523.0 685.5Q580 661 619.0 617.5Q658 574 676.5 514.5Q695 455 690 385Q674 381 653.0 377.0Q632 373 610.0 371.0Q588 369 567.0 369.0Q546 369 531 374Q535 467 496.0 521.0Q457 575 386 576Q346 576 311.0 557.5Q276 539 249.5 506.5Q223 474 208.0 429.0Q193 384 193 331Q193 284 207.0 245.0Q221 206 245.5 177.5Q270 149 304.0 133.0Q338 117 378 117Q426 117 478.0 139.0Q530 161 584 206Q609 198 625.5 181.0Q642 164 651.5 146.5Q661 129 665.0 116.0Q669 103 669 103Q598 43 522.0 13.0Q446 -17 369 -18Z"/></g>
<g transform="translate(3103,0)"><path d="M362 -18Q282 -18 219.5 8.5Q157 35 114.5 81.0Q72 127 50.0 189.0Q28 251 28 322Q28 401 57.5 472.0Q87 543 139.5 595.5Q192 648 262.5 679.0Q333 710 416 710Q494 710 555.5 685.0Q617 660 659.0 615.0Q701 570 723.5 509.0Q746 448 747 376Q748 289 720.0 217.0Q692 145 640.5 92.5Q589 40 517.5 11.0Q446 -18 362 -18ZM371 117Q417 117 456.0 137.5Q495 158 523.0 192.0Q551 226 566.5 269.5Q582 313 582 360Q582 404 570.0 443.0Q558 482 535.5 511.5Q513 541 480.0 558.5Q447 576 406 576Q361 576 322.0 555.5Q283 535 254.5 500.0Q226 465 209.5 418.5Q193 372 193 321Q193 280 204.0 243.0Q215 206 237.5 178.0Q260 150 293.0 133.5Q326 117 371 117Z"/></g>
  </g>
  <circle cx="787" cy="33" r="5" fill="#BF793B"/>
</svg>